<svg width="37" height="37" viewBox="0 0 37 37" fill="none" xmlns="http://www.w3.org/2000/svg">
<path d="M36.52 18.177C36.52 28.118 28.461 36.177 18.52 36.177C8.57902 36.177 0.52002 28.118 0.520021 18.177C0.520022 8.236 8.57902 0.177 18.52 0.177C28.461 0.177001 36.52 8.236 36.52 18.177Z" fill="#FFCC4D"/>
<path d="M27.8547 22.306C27.6767 22.145 27.4107 22.135 27.2197 22.277C27.1807 22.306 23.2977 25.177 18.5197 25.177C13.7537 25.177 9.85767 22.306 9.81967 22.277C9.62867 22.135 9.36267 22.147 9.18467 22.306C9.00767 22.466 8.96767 22.73 9.09067 22.934C9.21967 23.148 12.3077 28.177 18.5197 28.177C24.7317 28.177 27.8207 23.149 27.9487 22.934C28.0717 22.729 28.0327 22.466 27.8547 22.306Z" fill="#664500"/>
<path d="M25.02 11.177C23.6393 11.177 22.52 12.744 22.52 14.677C22.52 16.61 23.6393 18.177 25.02 18.177C26.4007 18.177 27.52 16.61 27.52 14.677C27.52 12.744 26.4007 11.177 25.02 11.177Z" fill="#664500"/>
<path d="M12.02 11.177C10.6393 11.177 9.52002 12.744 9.52002 14.677C9.52002 16.61 10.6393 18.177 12.02 18.177C13.4007 18.177 14.52 16.61 14.52 14.677C14.52 12.744 13.4007 11.177 12.02 11.177Z" fill="#664500"/>
</svg>
