<?xml version="1.0" encoding="UTF-8"?><svg id="Layer_2" xmlns="http://www.w3.org/2000/svg" viewBox="0 0 172.58 96.62"><g id="Layer_1-2"><g><path d="M21.69,94.12c-15.86,0-19.19-6.64-19.19-12.22-.06-2.63,1.05-5.27,3.12-7.39,2.6-2.65,6.41-4.24,10.18-4.24,1.1,0,2.18,.14,3.21,.41l6.43,1.69-5.96,2.96c-4.33,2.15-6.67,4.95-6.11,7.31,.51,2.18,3.73,4.53,9.59,4.53,4.72,0,17.35-1.78,32.68-18.3l.09-.09,.09-.08c7.95-7.01,15.96-20.46,23.03-32.32,4.78-8.03,9.35-15.7,13.65-21.04-2.34-.39-4.77-.93-7.28-1.48-5.16-1.14-10.51-2.33-15.67-2.33-5.53,0-10.07,1.41-13.88,4.32-3.32,2.48-4.4,7.88-3.3,11.18,.91,2.72,2.78,2.72,3.4,2.72s1.28-.11,2.01-.33l7.71-2.32-5.04,6.28c-1.84,2.28-4.7,3.59-7.86,3.59-2.8,0-5.43-1.07-7.22-2.93-1.75-1.81-2.62-4.24-2.51-7.01v-.13c1.32-14.39,16.42-23.26,30.29-23.54,.53-.04,1.06-.05,1.59-.05,5.19,0,10.35,1.56,15.35,3.07,4.27,1.29,8.3,2.5,11.68,2.5,1.65,0,3.02-.29,4.18-.9l2.93-1.52,.67,3.23c.29,1.37-.02,2.69-.85,3.71-1.17,1.44-3.11,1.97-4.53,2.16-1.88,4.4-.48,14.37,.56,21.8,.38,2.74,.75,5.33,.98,7.68,.46,6.03,.88,12.66,.61,19.52,.79-1.48,1.6-3.01,2.41-4.55,12.58-23.8,29.81-56.38,50.51-57.35h.29c4.27,0,7.83,1.69,9.54,4.53,1.34,2.22,1.35,4.91,.04,7.38l-1.56,2.93-2.39-2.3c-2.53-2.44-5.12-3.63-7.9-3.63-15.45,0-34.53,35.79-47.15,59.47-3.74,7.01-6.97,13.07-9.79,17.74-.69,1.21-2.57,3.09-4.79,3.09-.66,0-1.28-.16-1.86-.47-.8-.4-1.41-1.18-1.58-2.1-.32-1.67,.78-2.91,1.85-4.1,.47-.53,1.46-1.63,1.52-2.08,.14-5.26-.76-12.59-1.71-20.35-1.41-11.49-2.96-24.04-1.98-34.78-1.96,3.15-3.99,6.57-6.07,10.07-7.46,12.55-15.91,26.77-25.08,35.31-12.59,13.17-26.77,20.73-38.91,20.73Z" fill="#f4f1e4"/><path d="M159.52,5.19c6.04,0,9.64,3.97,7.37,8.23-3.11-3-6.34-4.33-9.64-4.33-21.48,0-45.89,56.56-59.08,78.42-.38,.67-1.55,1.88-2.65,1.88-.23,0-.45-.05-.66-.17-1.6-.8,3.09-3.43,3.09-6.06,.45-16.3-8.61-49.76-.8-67.34-10.42,12.68-23.49,42.04-38.3,55.79-11.89,12.46-25.61,20.01-37.16,20.01-10.75,0-16.69-2.97-16.69-9.72-.11-5.12,5.42-9.13,10.81-9.13,.87,0,1.73,.1,2.57,.32-12.8,6.37-8.11,16.58,4.59,16.58,8.74,0,21.28-4.84,34.51-19.1,15.01-13.24,29.04-46.61,40.13-57.16-8.07-.37-18.23-4.38-28.05-4.38-5.37,0-10.63,1.2-15.39,4.84-6.47,4.83-6.56,18.39,1.62,18.39,.82,0,1.73-.14,2.73-.44-1.43,1.77-3.68,2.66-5.91,2.66-3.72,0-7.42-2.45-7.23-7.35,1.16-12.72,15.08-21.03,27.9-21.27,.49-.03,.98-.05,1.48-.05,9.25,0,19.21,5.57,27.03,5.57,1.92,0,3.71-.34,5.33-1.18,.57,2.74-3.66,2.97-4.46,2.97-4.12,5.83-.46,21.84,.57,32.13,.8,10.4,1.26,20.69-.69,31.21C114.82,56.13,135.2,6.31,159.35,5.19c.06,0,.12,0,.17,0m0-5h-.24s-.08,0-.08,0h-.08c-10.13,.47-20.14,7.56-30.61,21.65-7.37,9.93-14.09,22.14-19.72,32.74-.13-3.35-.35-6.58-.59-9.65v-.06s-.01-.06-.01-.06c-.24-2.4-.61-5.01-.99-7.78-.81-5.81-2.09-14.97-1.13-19.28,1.59-.42,3.32-1.22,4.57-2.76,1.32-1.62,1.8-3.68,1.36-5.8l-1.34-6.45-5.85,3.03c-.8,.41-1.79,.62-3.03,.62-3.01,0-6.87-1.16-10.95-2.4-4.93-1.49-10.52-3.17-16.08-3.17-.57,0-1.14,.02-1.69,.05-14.95,.33-31.22,10.05-32.66,25.81v.13s-.02,.13-.02,.13c-.13,3.47,.98,6.52,3.21,8.84,2.26,2.35,5.55,3.69,9.02,3.69,3.92,0,7.5-1.65,9.81-4.53l10.09-12.55-15.43,4.63c-.62,.19-1.04,.23-1.29,.23-.39,0-.69,0-1.03-1.01-.79-2.38,.1-6.65,2.41-8.37l.02-.02,.02-.02c3.4-2.6,7.33-3.81,12.36-3.81,4.89,0,10.09,1.15,15.13,2.27,1.15,.25,2.28,.51,3.4,.74-3.66,5.1-7.45,11.46-11.38,18.06-6.97,11.71-14.88,24.97-22.53,31.72l-.19,.17-.17,.18c-14.66,15.8-26.46,17.5-30.85,17.5-4.62,0-6.94-1.7-7.15-2.6-.14-.59,.87-2.55,4.79-4.5l11.91-5.93-12.87-3.38c-1.23-.32-2.52-.49-3.84-.49-4.44,0-8.91,1.87-11.97,4.99C1.31,75.35-.05,78.61,0,81.95c.02,5.5,2.88,14.67,21.69,14.67,12.81,0,27.63-7.82,40.67-21.45,9.41-8.79,17.94-23.14,25.47-35.81,.38-.64,.76-1.29,1.14-1.92,.17,8.43,1.26,17.32,2.28,25.66,.91,7.4,1.77,14.41,1.7,19.41-.23,.31-.63,.76-.89,1.05-1.19,1.33-2.99,3.34-2.44,6.23,.32,1.66,1.38,3.06,2.91,3.86,.91,.48,1.94,.74,2.98,.74,3.49,0,5.99-2.69,6.96-4.34,2.85-4.72,6.08-10.79,9.83-17.82,6.92-12.99,14.77-27.71,23.1-39.45,10.96-15.45,17.93-18.69,21.84-18.69,2.11,0,4.12,.96,6.17,2.93l4.77,4.6,3.11-5.85c1.73-3.26,1.69-6.84-.11-9.84-2.16-3.6-6.53-5.74-11.68-5.74h0Z" fill="#f4f1e4"/></g></g></svg>